PathFileType	4	(X/Y/Z)	Patient4_TMGait_0pt6_02_right_34.trc.trc
DataRate	CameraRate	NumFrames	NumMarkers	Units	OrigDataRate	OrigDataStartFrame	OrigNumFrames
81.871345029240	81.871345029240	4	33	mm	81.871345029240	106	       141
Frame#	Time	Sacral			L.Shoulder			Chest			R.Shoulder			Neck			R.ASIS			L.ASIS			R.Thigh.Superior			R.Thigh.Lateral			R.Thigh.Inferior			R.Patella			L.Thigh.Superior			L.Thigh.Lateral			L.Thigh.Inferior			L.Patella			L.Shank.Superior			L.Shank.Lateral			L.Shank.Inferior			R.Shank.Superior			R.Shank.Lateral			R.Shank.Inferior			R.Heel			R.Midfoot.Superior			R.Midfoot.Lateral			R.Toe			L.Heel			L.Midfoot.Lateral			L.Midfoot.Superior			L.Toe			L.Elbow			L.Wrist			R.Elbow			R.Wrist			
		X1	Y1	Z1	X2	Y2	Z2	X3	Y3	Z3	X4	Y4	Z4	X5	Y5	Z5	X6	Y6	Z6	X7	Y7	Z7	X8	Y8	Z8	X9	Y9	Z9	X10	Y10	Z10	X11	Y11	Z11	X12	Y12	Z12	X13	Y13	Z13	X14	Y14	Z14	X15	Y15	Z15	X16	Y16	Z16	X17	Y17	Z17	X18	Y18	Z18	X19	Y19	Z19	X20	Y20	Z20	X21	Y21	Z21	X22	Y22	Z22	X23	Y23	Z23	X24	Y24	Z24	X25	Y25	Z25	X26	Y26	Z26	X27	Y27	Z27	X28	Y28	Z28	X29	Y29	Z29	X30	Y30	Z30	X31	Y31	Z31	X32	Y32	Z32	X33	Y33	Z33	

106	42.182500000000	800.703992192974	1014.367657247196	429.535259345195	1010.820212146446	1439.946601790184	258.750502667995	1101.150880107133	1363.419197360381	423.084213516072	1011.205988196564	1440.109780725788	591.984207699295	1000.168874387139	1497.684114492784	410.868068768434	1022.707000612933	950.329167283631	555.536611948690	1020.761150436147	963.491800306883	281.714891874443	1121.213084228189	802.517154762922	519.355062919281	1102.688838664365	679.050561727348	594.002498824438	1192.611686875677	651.283299868706	509.210476655747	1229.526469985393	541.561238839829	531.711310431696	1060.794515085406	748.913424120141	317.299112592984	968.869542683178	636.257746875670	257.444145711754	1044.042614212283	556.092215817283	328.330618395645	1039.960743807007	487.147396144204	340.004622300120	1012.222935896329	416.330333409708	330.717346338637	921.806457518476	302.750554103869	280.865416603940	967.584276200791	192.517648164065	356.044333417261	1164.041892018364	457.477160655425	542.673478008650	1050.717829239728	400.103556357351	603.746932249461	1054.363287578264	289.092009627318	557.834749139661	867.429934532903	204.367629679416	530.590431430836	1038.733029751881	155.907122184877	570.156743158742	929.909543247054	147.266508891322	603.223234761144	1111.338890532682	48.342985734039	595.487264798611	836.766418722940	38.289669878764	401.330126863271	908.802070186188	35.723366070843	318.693457819813	992.534426991310	96.563430178215	344.359583188760	1120.586531336687	44.049465648488	312.193233121779	1040.397223220248	1099.910845168927	112.991800043891	1237.700119430514	927.545094352682	129.886033198701	914.846550039155	1101.744441509438	703.332727577870	931.624846221621	838.916908839105	702.296805536655	
107	42.194714285714	800.309264701174	1014.688955768938	428.923386164533	1012.704108824893	1440.050337253527	259.253765888528	1101.769647443186	1362.941320298230	423.979383601488	1011.144277674534	1439.740798662752	592.433488803238	1001.222022171233	1497.611913343105	411.359734293691	1021.911243025906	950.422824003669	555.708773861052	1020.761247458117	963.407396977900	281.788937020574	1121.005352455085	804.127565968926	519.346360959033	1103.260933996371	680.298812680068	594.037409588293	1193.321869564485	653.287576298257	509.360335772258	1231.752024861749	545.277468019084	531.820190444723	1058.680024060945	747.917565025436	317.460845293125	965.535018370173	636.166939351640	257.236464895222	1039.552026420504	555.181190680632	328.215132966620	1034.755380451659	486.407990928810	339.839630922403	1006.763524683603	415.848532581425	330.571560507208	915.859704392639	302.725627855518	280.641920520196	960.817646236831	192.269455087508	355.947933995254	1170.031665538347	459.452131408560	542.878297427152	1060.302904069020	396.408818169460	604.557604708364	1069.368353465464	285.747936900004	558.453862646782	886.882833910897	190.815087627594	532.235892088749	1060.851843520591	152.402647543085	570.731153995724	953.059685890539	137.744682084061	604.781457037821	1139.796344640962	49.334906436280	596.102303454135	829.428065566374	38.388506467617	401.250457282093	901.467107726183	35.721222118545	318.660921540375	985.285374462903	96.480198764617	344.324662466237	1113.307799122991	43.714898790589	312.164316368269	1046.192441305948	1101.594967038144	111.980024832935	1252.624075077943	940.706433547165	130.136884666714	906.965459115353	1104.245192865198	703.753397635585	910.626542759784	840.987430197801	703.474040661776	
108	42.206928571429	800.022991389334	1014.958265321860	428.435534151814	1014.540104693557	1440.035348636765	259.839458003462	1102.454674095597	1362.389334553196	424.911031587680	1011.240665948240	1439.357635239622	592.942628310633	1002.354252871700	1497.460097403845	411.900810876821	1021.218212737974	950.372372293246	555.987638796411	1020.814445865915	963.256916607927	281.949997538012	1120.489526841883	805.049559042287	519.587587010709	1102.988340874062	680.864526669228	594.264419229402	1193.199438637091	654.370716584541	509.825844162514	1232.867001423867	548.238123829714	532.162256290971	1056.650639186393	746.903270051139	317.622831565491	962.240217437648	636.056284035810	257.079504097315	1035.135509952540	554.260594828369	328.078898344219	1029.627776809390	485.661687032383	339.665438074773	1001.386684579519	415.355880903459	330.438043362754	909.964849843856	302.710934812342	280.431192845359	954.098912235689	192.025926448143	355.848415378849	1175.136694427123	460.907658190592	543.246958337973	1069.615309594747	392.099233744496	605.669587498159	1084.295325444678	282.158896959828	559.229406202048	907.210819094712	176.850368489933	534.124837821226	1083.245242312003	149.027571083733	571.456860329165	976.944629966134	128.144254163640	606.470666340451	1168.397592568527	50.964326648723	596.654482168602	822.098078693952	38.507551108322	401.160126375308	894.136102491376	35.723529422002	318.626411731449	978.039901710453	96.402789693204	344.282755061750	1106.024600342525	43.387155785902	312.131770576807	1051.746231248430	1103.098315832866	111.261438555051	1266.512005020630	954.111158640016	130.724424679878	899.066300223876	1107.103943504125	704.255085298028	891.148217529701	844.115724073304	704.375062428377	
109	42.219142857143	799.864215840895	1015.172215764771	428.084273073183	1016.306135373380	1439.910630091728	260.496801801915	1103.197195475185	1361.781622336136	425.868683329604	1011.494464582246	1438.979467594013	593.501295142108	1003.548795058641	1497.239082884641	412.483166701192	1020.648026553865	950.190646436272	556.384887746997	1020.919267934091	963.041931771529	282.211017891857	1119.663052456535	805.243903990925	520.077897287913	1101.871004234703	680.725300206171	594.693230406433	1192.221939365362	654.491721243130	510.582542331770	1232.860469396046	550.389528849896	532.694971671432	1054.703222505505	745.870121107786	317.794645780499	958.990893751696	635.930288768818	256.981704917866	1030.798149363496	553.332802161122	327.932669700406	1024.579342029638	484.904402191534	339.494511981658	996.094198841296	414.854817895808	330.322279869126	904.119439295818	302.710830644761	280.237494981560	947.424834563979	191.789306615190	355.746576417052	1179.297526833720	461.833221716884	543.758319095863	1078.577747131000	387.264518008213	607.045350200510	1098.998106787227	278.430923738622	560.122479688660	928.274275433858	162.687899847638	536.184111449406	1105.712010412346	145.947681439529	572.312129878934	1001.370023110589	118.667552909804	608.223351148592	1196.862476739378	53.392438735879	597.115757225610	814.772409707035	38.645967120196	401.060909187631	886.807362531065	35.730664100817	318.589538959129	970.795647110473	96.332111953562	344.232020455541	1098.734086696208	43.069991344018	312.096741025160	1057.082218465171	1104.418913080857	110.837353183271	1279.329084646239	967.626496167222	131.638606175302	891.214106373345	1110.321173715344	704.804964471233	873.222063298181	848.059886678113	705.059267804745	
